<?xml version="1.0" standalone="no"?>
<!DOCTYPE svg PUBLIC "-//W3C//DTD SVG 20010904//EN"
 "http://www.w3.org/TR/2001/REC-SVG-20010904/DTD/svg10.dtd">
<svg version="1.0" xmlns="http://www.w3.org/2000/svg"
 width="1141.000000pt" height="1141.000000pt" viewBox="0 0 1141.000000 1141.000000"
 preserveAspectRatio="xMidYMid meet">
<metadata>
Created by potrace 1.11, written by Peter Selinger 2001-2013
</metadata>
<g transform="translate(0.000000,1141.000000) scale(0.100000,-0.100000)"
fill="#000000" stroke="none">
<path d="M5515 9133 c-16 -1 -142 -7 -280 -13 -137 -6 -261 -13 -275 -14 -14
-2 -61 -7 -105 -10 -197 -17 -715 -85 -766 -101 -10 -3 -41 -10 -71 -15 -196
-35 -470 -99 -608 -144 -58 -18 -157 -48 -220 -66 -301 -87 -849 -306 -1130
-453 -454 -237 -683 -387 -1145 -751 -104 -82 -213 -168 -242 -190 -223 -175
-344 -277 -368 -311 -71 -100 -105 -173 -142 -305 -46 -166 -48 -220 -19 -535
19 -221 51 -367 92 -427 34 -50 388 -409 519 -525 50 -44 117 -104 150 -134
33 -29 66 -59 74 -66 7 -8 30 -22 52 -33 32 -17 295 -176 559 -339 41 -25 84
-51 95 -57 52 -29 390 -237 429 -264 25 -16 47 -30 50 -30 5 0 493 -297 606
-368 40 -25 432 -263 465 -282 17 -9 80 -47 140 -85 61 -37 191 -117 290 -177
99 -60 196 -120 215 -132 19 -13 80 -50 135 -83 55 -33 170 -103 255 -155 85
-52 166 -101 180 -109 14 -8 34 -21 45 -30 11 -8 79 -50 150 -93 72 -42 162
-97 200 -122 39 -24 77 -47 85 -51 8 -4 29 -17 46 -30 17 -13 35 -23 39 -23 5
0 16 -6 24 -14 9 -7 36 -25 61 -38 43 -24 267 -160 450 -274 121 -75 136 -81
157 -62 10 8 70 44 133 78 63 35 131 72 150 83 19 11 130 71 245 135 116 63
273 151 350 195 77 44 178 100 225 124 47 25 162 96 255 158 174 115 413 270
475 310 19 12 67 42 105 67 39 25 88 55 110 68 38 23 244 154 445 285 52 34
154 99 225 145 72 46 181 117 243 157 62 40 115 73 118 73 3 0 41 25 84 55 43
30 81 55 85 55 4 0 32 17 63 39 32 21 91 60 132 86 41 26 98 62 125 80 28 17
83 53 123 78 39 26 102 67 140 91 37 24 121 77 187 119 66 42 185 118 265 170
80 51 191 122 247 158 167 105 176 110 310 200 70 48 155 101 188 118 65 33
113 88 227 261 185 281 247 439 248 630 0 47 5 112 10 145 11 63 15 245 6 280
-21 89 -97 234 -204 394 -148 219 -479 500 -905 768 -84 53 -170 108 -192 123
-95 65 -628 335 -820 415 -49 21 -95 42 -100 46 -6 4 -103 44 -215 89 -113 44
-225 89 -250 99 -139 58 -489 179 -750 261 -250 78 -285 89 -325 100 -56 15
-159 35 -310 59 -71 12 -155 26 -185 31 -149 26 -492 57 -840 75 -117 6 -560
12 -615 8z"/>
</g>
</svg>
